<svg width="450" height="877" viewBox="0 0 450 877" fill="none" xmlns="http://www.w3.org/2000/svg">
<mask id="mask0_411_279" style="mask-type:alpha" maskUnits="userSpaceOnUse" x="0" y="0" width="450" height="877">
<rect width="450" height="877" rx="19" fill="#D9D9D9"/>
</mask>
<g mask="url(#mask0_411_279)">
<path d="M91.2883 127.817C99.8077 121.707 101.769 109.852 95.6712 101.325L23.7948 0.808746C17.1959 -8.41961 3.57592 -9.7807 -0.960855 0.617683C-3.55673 6.56747 -5 13.1146 -5 19.9947V159.86C-5 175.331 12.5004 184.316 25.0723 175.301L91.2883 127.817Z" fill="black"/>
<path d="M2.9458 528.51C-2.0411 532.078 -5 537.832 -5 543.964V862.704C-5 889.651 17.0476 911.698 43.9947 911.698H185.128C189.092 911.698 192.957 910.458 196.182 908.152L392.564 767.689C401.102 761.582 403.07 749.709 396.958 741.174L173.863 429.598C167.756 421.069 155.893 419.103 147.361 425.206L2.9458 528.51Z" fill="black"/>
<path d="M271.049 262.019C277.158 270.548 289.024 272.512 297.555 266.405L450.06 157.23C455.044 153.662 458 147.909 458 141.78V19.9947C458 -6.95238 435.953 -29 409.006 -29H99.592C84.1267 -29 75.1401 -11.5097 84.1452 1.06337L271.049 262.019Z" fill="black"/>
<path d="M450.068 663.346C455.047 659.777 458 654.028 458 647.902V489.813C458 474.354 440.52 465.366 427.946 474.36L332.357 542.732C323.819 548.839 321.851 560.713 327.963 569.248L402.838 673.809C408.949 682.343 420.822 684.305 429.354 678.19L450.068 663.346Z" fill="black"/>
<path d="M280.123 502.556C286.225 511.099 298.097 513.074 306.636 506.968L450.052 404.408C455.04 400.84 458 395.085 458 388.953V230.886C458 215.425 440.516 206.437 427.943 215.435L209.846 371.508C201.318 377.611 199.347 389.469 205.442 398.003L280.123 502.556Z" fill="black"/>
<path d="M226.723 317.183C235.258 311.076 237.224 299.205 231.115 290.671L133.443 154.25C127.336 145.72 115.471 143.754 106.939 149.857L2.94522 224.253C-2.04134 227.82 -5 233.575 -5 239.706V446.036C-5 461.497 12.4827 470.485 25.0566 461.487L226.723 317.183Z" fill="black"/>
<path d="M458.5 714.634C458.5 727.205 442.31 732.294 435.117 721.985C431.356 716.593 432.271 709.231 437.239 704.926C445.559 697.716 458.5 703.625 458.5 714.634Z" fill="black"/>
<path d="M451.806 810.507L442.265 800.414C435.793 793.57 425.284 792.5 417.566 797.9L308.903 873.932C293.681 884.584 301.217 908.5 319.796 908.5H438C448.493 908.5 457 899.993 457 889.5V823.56C457 818.705 455.142 814.034 451.806 810.507Z" fill="black"/>
</g>
</svg>
