<svg width="118" height="145" viewBox="0 0 118 145" fill="none" xmlns="http://www.w3.org/2000/svg">
<path d="M102.487 98.8494C113.511 86.8457 119.39 70.1875 117.43 52.3044C114.246 25.6023 92.6878 4.28961 65.9857 1.34993C30.7095 -2.56965 0.822754 24.8674 0.822754 59.4087C0.822754 74.597 6.70207 88.3155 16.0111 98.8494L53.0021 142.21C56.1867 145.884 62.0661 145.884 65.2508 142.21L102.487 98.8494ZM59.1264 36.6261C71.8651 36.6261 82.1539 46.915 82.1539 59.6536C82.1539 72.3923 71.8651 82.6811 59.1264 82.6811C46.3878 82.6811 36.0989 72.3923 36.0989 59.6536C36.0989 46.915 46.6328 36.6261 59.1264 36.6261Z" fill="url(#paint0_linear_409_190)"/>
<defs>
<linearGradient id="paint0_linear_409_190" x1="22.876" y1="-29.0706" x2="118.416" y2="203.655" gradientUnits="userSpaceOnUse">
<stop stop-color="#FFAE1A"/>
<stop offset="1" stop-color="#FF981A"/>
</linearGradient>
</defs>
</svg>
